# xmcd
#
# Track frame offsets: 
#        150
#        16899
#        38103
#        55333
#        70753
#        87053
#        101510
#        122335
#        136552
#        160619
#
# Disc length: 2349 seconds
#
# Revision: 0
# Processed by: cddbd v1.5.2PL0 Copyright (c) Steve Scherf et al.
# Submitted via: ExactAudioCopyFreeDBPlugin 1.0
#
DISCID=6b092b0a
DTITLE=Adam Eckersley and Brooke McClymont - Eckersley McClymont
DYEAR=2017
DGENRE=Country
TTITLE0=Train Wreck
TTITLE1=Lay With Me
TTITLE2=So Smooth
TTITLE3=Nothing Left To Win
TTITLE4=Love On The Loose
TTITLE5=Not How I Feeel
TTITLE6=Out Of My Hands
TTITLE7=One Man
TTITLE8=Highway Sky
TTITLE9=Glad
EXTD=
EXTT0=
EXTT1=
EXTT2=
EXTT3=
EXTT4=
EXTT5=
EXTT6=
EXTT7=
EXTT8=
EXTT9=
PLAYORDER=
